<svg xmlns="http://www.w3.org/2000/svg" viewBox="0 0 760 472" width="760" height="472" font-family="system-ui, -apple-system, 'Segoe UI', Helvetica, Arial, sans-serif"><rect width="100%" height="100%" fill="#fcfcfb"/><text x="24" y="32" font-size="17" fill="#0b0b0b" text-anchor="start" font-weight="700">Bridges and articulation points — same graph, answers marked</text><text x="24" y="55" font-size="13" fill="#52514e" text-anchor="start" font-weight="400">Red thick edge = bridge.  Blue ringed vertex = articulation point.  Each vertex shows disc/low.</text><line x1="80" y1="105" x2="80" y2="245" stroke="#52514e" stroke-width="2.5" stroke-linecap="round"/><line x1="80" y1="245" x2="190" y2="175" stroke="#52514e" stroke-width="2.5" stroke-linecap="round"/><line x1="190" y1="175" x2="80" y2="105" stroke="#52514e" stroke-width="2.5" stroke-linecap="round"/><line x1="190" y1="175" x2="300" y2="105" stroke="#52514e" stroke-width="2.5" stroke-linecap="round"/><line x1="300" y1="105" x2="300" y2="245" stroke="#52514e" stroke-width="2.5" stroke-linecap="round"/><line x1="300" y1="245" x2="190" y2="175" stroke="#52514e" stroke-width="2.5" stroke-linecap="round"/><line x1="300" y1="245" x2="420" y2="245" stroke="#d03b3b" stroke-width="5.5" stroke-linecap="round"/><line x1="420" y1="245" x2="530" y2="175" stroke="#52514e" stroke-width="2.5" stroke-linecap="round"/><line x1="530" y1="175" x2="530" y2="315" stroke="#52514e" stroke-width="2.5" stroke-linecap="round"/><line x1="530" y1="315" x2="420" y2="245" stroke="#52514e" stroke-width="2.5" stroke-linecap="round"/><line x1="530" y1="175" x2="650" y2="175" stroke="#d03b3b" stroke-width="5.5" stroke-linecap="round"/><text x="360" y="293" font-size="12" fill="#d03b3b" text-anchor="middle" font-weight="700">BRIDGE</text><text x="596" y="147" font-size="12" fill="#d03b3b" text-anchor="middle" font-weight="700">BRIDGE</text><circle cx="80" cy="105" r="28" fill="#f0efec" stroke="#52514e" stroke-width="2"/><text x="80" y="102" font-size="17" fill="#0b0b0b" text-anchor="middle" font-weight="700">0</text><text x="80" y="119" font-size="11" fill="#52514e" text-anchor="middle" font-weight="600">0/0</text><circle cx="80" cy="245" r="28" fill="#f0efec" stroke="#52514e" stroke-width="2"/><text x="80" y="242" font-size="17" fill="#0b0b0b" text-anchor="middle" font-weight="700">1</text><text x="80" y="259" font-size="11" fill="#52514e" text-anchor="middle" font-weight="600">1/0</text><circle cx="190" cy="175" r="34" fill="none" stroke="#2a78d6" stroke-width="1.5" stroke-dasharray="4 3"/><circle cx="190" cy="175" r="28" fill="#dce9fb" stroke="#2a78d6" stroke-width="3"/><text x="190" y="172" font-size="17" fill="#0b0b0b" text-anchor="middle" font-weight="700">2</text><text x="190" y="189" font-size="11" fill="#2a78d6" text-anchor="middle" font-weight="600">2/0</text><circle cx="300" cy="105" r="28" fill="#f0efec" stroke="#52514e" stroke-width="2"/><text x="300" y="102" font-size="17" fill="#0b0b0b" text-anchor="middle" font-weight="700">3</text><text x="300" y="119" font-size="11" fill="#52514e" text-anchor="middle" font-weight="600">3/2</text><circle cx="300" cy="245" r="34" fill="none" stroke="#2a78d6" stroke-width="1.5" stroke-dasharray="4 3"/><circle cx="300" cy="245" r="28" fill="#dce9fb" stroke="#2a78d6" stroke-width="3"/><text x="300" y="242" font-size="17" fill="#0b0b0b" text-anchor="middle" font-weight="700">4</text><text x="300" y="259" font-size="11" fill="#2a78d6" text-anchor="middle" font-weight="600">4/2</text><circle cx="420" cy="245" r="34" fill="none" stroke="#2a78d6" stroke-width="1.5" stroke-dasharray="4 3"/><circle cx="420" cy="245" r="28" fill="#dce9fb" stroke="#2a78d6" stroke-width="3"/><text x="420" y="242" font-size="17" fill="#0b0b0b" text-anchor="middle" font-weight="700">5</text><text x="420" y="259" font-size="11" fill="#2a78d6" text-anchor="middle" font-weight="600">5/5</text><circle cx="530" cy="175" r="34" fill="none" stroke="#2a78d6" stroke-width="1.5" stroke-dasharray="4 3"/><circle cx="530" cy="175" r="28" fill="#dce9fb" stroke="#2a78d6" stroke-width="3"/><text x="530" y="172" font-size="17" fill="#0b0b0b" text-anchor="middle" font-weight="700">6</text><text x="530" y="189" font-size="11" fill="#2a78d6" text-anchor="middle" font-weight="600">6/5</text><circle cx="530" cy="315" r="28" fill="#f0efec" stroke="#52514e" stroke-width="2"/><text x="530" y="312" font-size="17" fill="#0b0b0b" text-anchor="middle" font-weight="700">7</text><text x="530" y="329" font-size="11" fill="#52514e" text-anchor="middle" font-weight="600">7/5</text><circle cx="650" cy="175" r="28" fill="#f0efec" stroke="#52514e" stroke-width="2"/><text x="650" y="172" font-size="17" fill="#0b0b0b" text-anchor="middle" font-weight="700">8</text><text x="650" y="189" font-size="11" fill="#52514e" text-anchor="middle" font-weight="600">8/8</text><path d="M 360,300 L 360,363" stroke="#d03b3b" stroke-width="1.5" stroke-dasharray="4 3" fill="none"/><rect x="60" y="365" width="440" height="60" rx="8" fill="#fdeeee" stroke="#d03b3b" stroke-width="1.5"/><text x="80" y="390" font-size="13" fill="#d03b3b" text-anchor="start" font-weight="700">Bridge check, tree edge 4→5:  low[5]=5 &gt; disc[4]=4  ✓</text><text x="80" y="411" font-size="12" fill="#52514e" text-anchor="start" font-weight="400">Nothing in subtree {5,6,7,8} reaches 4 or earlier.</text><rect x="516" y="365" width="224" height="60" rx="8" fill="#dce9fb" stroke="#2a78d6" stroke-width="1.5"/><text x="534" y="390" font-size="12.5" fill="#2a78d6" text-anchor="start" font-weight="700">Vertex 2 is an AP but</text><text x="534" y="411" font-size="12.5" fill="#2a78d6" text-anchor="start" font-weight="700">touches no bridge.</text><text x="24" y="452" font-size="12.5" fill="#0b0b0b" text-anchor="start" font-weight="700">Bridges: 4-5, 6-8</text><text x="190" y="452" font-size="12.5" fill="#0b0b0b" text-anchor="start" font-weight="700">Articulation points: 2, 4, 5, 6</text><text x="430" y="452" font-size="12.5" fill="#52514e" text-anchor="start" font-weight="400">Root 0 has one DFS child → not an AP</text></svg>