<svg xmlns="http://www.w3.org/2000/svg" viewBox="0 0 700 412" width="700" height="412" font-family="system-ui, -apple-system, 'Segoe UI', Helvetica, Arial, sans-serif"><rect width="100%" height="100%" fill="#fcfcfb"/><defs><marker id="ar-ink" viewBox="0 0 10 10" refX="9" refY="5" markerWidth="6.5" markerHeight="6.5" orient="auto-start-reverse"><path d="M 0 0 L 10 5 L 0 10 z" fill="#52514e"/></marker><marker id="ar-A" viewBox="0 0 10 10" refX="9" refY="5" markerWidth="6.5" markerHeight="6.5" orient="auto-start-reverse"><path d="M 0 0 L 10 5 L 0 10 z" fill="#2a78d6"/></marker><marker id="ar-B" viewBox="0 0 10 10" refX="9" refY="5" markerWidth="6.5" markerHeight="6.5" orient="auto-start-reverse"><path d="M 0 0 L 10 5 L 0 10 z" fill="#eb6834"/></marker><marker id="ar-C" viewBox="0 0 10 10" refX="9" refY="5" markerWidth="6.5" markerHeight="6.5" orient="auto-start-reverse"><path d="M 0 0 L 10 5 L 0 10 z" fill="#1baf7a"/></marker><marker id="ar-D" viewBox="0 0 10 10" refX="9" refY="5" markerWidth="6.5" markerHeight="6.5" orient="auto-start-reverse"><path d="M 0 0 L 10 5 L 0 10 z" fill="#4a3aa7"/></marker></defs><text x="24" y="32" font-size="17" fill="#0b0b0b" text-anchor="start" font-weight="700">Input digraph — 8 vertices, 11 directed edges</text><text x="24" y="55" font-size="13" fill="#52514e" text-anchor="start" font-weight="400">Which groups of vertices can all reach each other? Those groups are the strongly connected components.</text><path d="M 90.0,146.0 Q 90.0,190.0 90.0,227.0" fill="none" stroke="#52514e" stroke-width="2.3" marker-end="url(#ar-ink)"/><path d="M 111.9,246.0 Q 145.0,225.0 172.2,207.7" fill="none" stroke="#52514e" stroke-width="2.3" marker-end="url(#ar-ink)"/><path d="M 178.1,176.0 Q 145.0,155.0 117.8,137.7" fill="none" stroke="#52514e" stroke-width="2.3" marker-end="url(#ar-ink)"/><path d="M 222.1,176.4 Q 265.0,150.0 301.9,127.3" fill="none" stroke="#52514e" stroke-width="2.3" marker-end="url(#ar-ink)"/><path d="M 353.3,121.6 Q 390.0,140.0 420.5,124.8" fill="none" stroke="#52514e" stroke-width="2.3" marker-end="url(#ar-ink)"/><path d="M 426.7,98.4 Q 390.0,80.0 359.5,95.2" fill="none" stroke="#52514e" stroke-width="2.3" marker-end="url(#ar-ink)"/><path d="M 115.5,265.3 Q 210.0,285.0 297.7,303.3" fill="none" stroke="#52514e" stroke-width="2.3" marker-end="url(#ar-ink)"/><path d="M 356.0,310.0 Q 390.0,310.0 417.0,310.0" fill="none" stroke="#52514e" stroke-width="2.3" marker-end="url(#ar-ink)"/><path d="M 474.6,301.6 Q 529.2,283.0 553.9,238.8" fill="none" stroke="#52514e" stroke-width="2.3" marker-end="url(#ar-ink)"/><path d="M 545.4,218.4 Q 490.8,237.0 466.1,281.2" fill="none" stroke="#52514e" stroke-width="2.3" marker-end="url(#ar-ink)"/><path d="M 470.0,126.6 Q 510.0,160.0 544.6,188.9" fill="none" stroke="#52514e" stroke-width="2.3" marker-end="url(#ar-ink)"/><circle cx="90" cy="120" r="26" fill="#f0efec" stroke="#52514e" stroke-width="2"/><text x="90" y="126" font-size="18" fill="#0b0b0b" text-anchor="middle" font-weight="700">0</text><circle cx="90" cy="260" r="26" fill="#f0efec" stroke="#52514e" stroke-width="2"/><text x="90" y="266" font-size="18" fill="#0b0b0b" text-anchor="middle" font-weight="700">1</text><circle cx="200" cy="190" r="26" fill="#f0efec" stroke="#52514e" stroke-width="2"/><text x="200" y="196" font-size="18" fill="#0b0b0b" text-anchor="middle" font-weight="700">2</text><circle cx="330" cy="110" r="26" fill="#f0efec" stroke="#52514e" stroke-width="2"/><text x="330" y="116" font-size="18" fill="#0b0b0b" text-anchor="middle" font-weight="700">3</text><circle cx="450" cy="110" r="26" fill="#f0efec" stroke="#52514e" stroke-width="2"/><text x="450" y="116" font-size="18" fill="#0b0b0b" text-anchor="middle" font-weight="700">4</text><circle cx="330" cy="310" r="26" fill="#f0efec" stroke="#52514e" stroke-width="2"/><text x="330" y="316" font-size="18" fill="#0b0b0b" text-anchor="middle" font-weight="700">5</text><circle cx="450" cy="310" r="26" fill="#f0efec" stroke="#52514e" stroke-width="2"/><text x="450" y="316" font-size="18" fill="#0b0b0b" text-anchor="middle" font-weight="700">6</text><circle cx="570" cy="210" r="26" fill="#f0efec" stroke="#52514e" stroke-width="2"/><text x="570" y="216" font-size="18" fill="#0b0b0b" text-anchor="middle" font-weight="700">7</text><text x="24" y="392" font-size="12" fill="#898781" text-anchor="start" font-weight="400">Edges:  0→1 · 1→2 · 2→0 · 2→3 · 3→4 · 4→3 · 1→5 · 5→6 · 6→7 · 7→6 · 4→7</text></svg>